<?xml version="1.0" encoding="utf-8"?>
<svg version="1.1" id="Livello_1" xmlns="http://www.w3.org/2000/svg" xmlns:xlink="http://www.w3.org/1999/xlink" x="0px" y="0px"
	 viewBox="0 0 0 0" xml:space="preserve"
	style="fill: white"
	 >
<g>
	<path d="M1114.69,813.66c-1.26,1.77-2.18,3.53-3.52,4.87c-34.71,34.77-69.47,69.48-104.19,104.23
		c-16.24,16.25-32.4,32.59-48.62,48.86c-4.02,4.03-5.43,3.95-9.38,0c-22.79-22.78-45.65-45.49-68.4-68.31
		c-22.05-22.11-43.93-44.39-66-66.48c-27.13-27.15-54.42-54.14-81.59-81.25c-22.82-22.76-45.54-45.62-68.37-68.37
		c-2.35-2.34-2.01-4.59-0.08-6.55c8.87-9.02,17.77-18.01,27.01-26.65c0.98-0.92,4.94-0.17,6.3,1.1
		c7.65,7.12,14.95,14.62,22.32,22.04c11.45,11.52,22.82,23.11,34.3,34.61c13.13,13.15,26.35,26.21,39.5,39.33
		c13.62,13.58,27.23,27.18,40.81,40.8c16.87,16.91,33.66,33.9,50.56,50.78c16.67,16.65,33.44,33.19,50.13,49.82
		c4.47,4.45,8.88,8.96,13.17,13.58c2.41,2.59,4.08,2.87,6.87,0.08c40.66-40.82,81.46-81.49,122.18-122.24
		c2.99-2.99,5.67-2.93,8.58-0.04c8.36,8.34,16.79,16.63,25.11,25.02C1112.6,810.12,1113.41,811.78,1114.69,813.66z"/>
	<path d="M1035.51,298.91c-5.36,5.68-10.54,11.27-15.83,16.77c-4.45,4.63-5.74,4.68-10.18,0.32c-6.9-6.76-13.6-13.73-20.6-20.38
		c-2.42-2.3-1.21-3.79,0.36-5.39c4.9-4.99,9.86-9.93,14.84-14.85c4.54-4.49,4.58-5.05,0.07-9.47
		c-21.55-21.05-43.14-42.08-64.66-63.16c-7.14-6.99-14.33-13.94-21.13-21.24c-2.76-2.96-4.26-2.42-6.75,0.08
		c-39.18,39.29-78.43,78.51-117.66,117.74c-1.41,1.41-2.84,2.82-4.25,4.23c-4.02,4.01-5.48,4.08-9.39,0.15
		c-7.88-7.9-15.61-15.93-23.59-23.73c-3.15-3.08-2.86-5.25,0.17-8.28c40.81-40.65,81.52-81.39,122.25-122.11
		c10.36-10.36,20.72-20.73,31.07-31.1c4.36-4.37,5.15-4.5,9.64-0.08c7.47,7.35,14.76,14.87,22.17,22.28
		c22.34,22.36,44.7,44.69,67.03,67.05c8.7,8.71,17.52,17.31,25.92,26.3c3.08,3.3,4.96,2.72,7.61-0.1
		c3.99-4.25,8.28-8.21,12.28-12.45c2.58-2.73,4.79-3.02,7.54-0.19c7.3,7.53,14.68,14.98,22.16,22.32c2.63,2.58,2.52,4.74,0.03,7.2
		c-4.39,4.33-8.67,8.76-13.08,13.07c-2.43,2.38-2.29,4.1,0.24,6.6c17.14,16.94,34.09,34.06,51.12,51.11
		c12.81,12.82,25.55,25.7,38.54,38.33c2.42,2.36,2.63,3.66,0.27,5.99c-8.55,8.41-17.08,16.84-25.38,25.5
		c-3.26,3.4-5.02,0.7-6.92-1.13c-13.33-12.78-26.66-25.57-39.84-38.5c-16.77-16.45-33.39-33.04-50.09-49.56
		C1038.54,301.33,1037.48,300.57,1035.51,298.91z"/>
	<path d="M945.16,397.57c-5.72,6.22-10.9,12.28-16.52,17.9c-43.82,43.83-87.72,87.58-131.6,131.35c-4.98,4.97-4.99,4.97-0.09,9.85
		c26.75,26.67,53.49,53.36,80.29,79.99c2.54,2.52,2.82,4.53,0.17,7.13c-8.67,8.51-17.31,17.06-25.78,25.78
		c-2.31,2.38-3.9,2.36-6.15,0.12c-9.51-9.51-19.15-18.88-28.67-28.38c-13.4-13.37-26.71-26.82-40.1-40.19
		c-14.57-14.54-29.19-29.02-43.81-43.51c-2.65-2.63-3.42-5.29-0.48-8.19c5.56-5.48,11.2-10.87,16.7-16.41
		c35.52-35.82,71.02-71.66,106.5-107.53c28.46-28.77,56.87-57.59,85.32-86.38c4.42-4.47,6.12-4.55,10.67-0.04
		c10.85,10.74,21.59,21.59,32.39,32.38c17.03,17.02,34.07,34.04,51.11,51.05c9.4,9.39,18.79,18.81,28.22,28.17
		c2.41,2.39,2.94,4.43,0.16,7.13c-8.94,8.7-17.73,17.55-26.48,26.44c-2.29,2.32-3.84,1.54-5.79-0.42
		c-11.62-11.66-23.33-23.23-34.99-34.84c-15.32-15.26-30.63-30.52-45.92-45.8C949.03,401.91,947.86,400.52,945.16,397.57z"/>
	<path d="M853.24,942.02c-1.02,1.52-1.74,3.03-2.85,4.16c-8.64,8.79-17.35,17.5-26.04,26.23c-2.41,2.43-4.65,2.63-7.26,0
		c-24.77-24.91-49.59-49.76-74.42-74.61c-30.71-30.74-61.43-61.48-92.17-92.2c-22.61-22.59-45.24-45.16-67.88-67.71
		c-22.03-21.94-44.1-43.85-66.15-65.78c-3.42-3.4-6.75-6.89-10.26-10.19c-2.43-2.29-2.02-4.27,0.09-6.39
		c9.64-9.67,19.32-19.3,28.89-29.04c2.15-2.19,3.45-0.84,4.94,0.66c14.74,14.88,29.46,29.79,44.24,44.64
		c16.07,16.15,32.19,32.24,48.28,48.37c30.69,30.77,61.36,61.56,92.07,92.31c39.89,39.93,79.82,79.83,119.73,119.74
		c2.12,2.12,4.3,4.18,6.36,6.36C851.68,939.5,852.3,940.67,853.24,942.02z"/>
	<path d="M1366.06,428.86c-1.45,1.92-2.39,3.48-3.63,4.74c-7.97,8.04-16.13,15.91-23.98,24.07c-3.17,3.29-5.74,2.63-8.47-0.12
		c-14.42-14.53-28.77-29.12-43.22-43.62c-27.37-27.47-54.77-54.9-82.18-82.32c-30.94-30.95-61.9-61.88-92.86-92.82
		c-23.67-23.65-47.35-47.29-71.02-70.94c-6.71-6.71-13.3-13.54-20.09-20.17c-2.45-2.4-2.55-4.25-0.09-6.68
		c9.01-8.88,17.95-17.83,26.81-26.86c2.63-2.68,4.56-2.35,7.06,0.2c15.4,15.67,30.95,31.19,46.35,46.85
		c20.78,21.13,41.4,42.41,62.22,63.49c22.87,23.16,45.89,46.16,68.83,69.25c22.01,22.15,43.92,44.41,66.01,66.48
		c20.33,20.31,40.86,40.43,61.26,60.68C1361.46,423.47,1363.6,426.12,1366.06,428.86z"/>
	<path d="M1169.47,693.86c7.79-7.36,15.31-14.14,22.47-21.28c26.27-26.21,52.41-52.55,78.64-78.81
		c9.41-9.42,18.89-18.75,28.41-28.05c2.36-2.3,2.62-3.6-0.16-6.27c-13.16-12.63-25.97-25.62-38.86-38.54
		c-13.12-13.15-26.15-26.41-39.29-39.54c-14.55-14.54-29.17-29-43.79-43.47c-2.29-2.26-1.99-4.55,0-6.58
		c8.04-8.21,16.05-16.44,24.34-24.39c2.99-2.87,5.82-0.61,8.15,1.71c11.31,11.3,22.57,22.64,33.89,33.93
		c31.23,31.14,62.49,62.25,93.71,93.39c7.78,7.75,15.52,15.54,23.19,23.4c4.11,4.22,4.05,5.91-0.04,9.98
		c-35.82,35.76-71.66,71.5-107.47,107.27c-14.96,14.95-29.82,29.99-44.74,44.98c-4.43,4.46-5.88,4.51-10.2,0.25
		C1188.76,713.01,1179.83,704.13,1169.47,693.86z"/>
	<path d="M695.33,394.81c-1.13,1.42-2.03,2.79-3.17,3.93c-40.14,40.15-80.3,80.28-120.45,120.42c-1.06,1.06-2.5,2.04-2.93,3.33
		c-0.41,1.23-0.27,3.37,0.54,4.19c24.31,24.49,48.73,48.89,73.16,73.26c5.98,5.97,12.03,11.87,18.15,17.69
		c2.43,2.31,2.66,4.57,0.36,6.89c-8.79,8.87-17.58,17.75-26.52,26.48c-2.79,2.72-5.39,0.53-7.4-1.42
		c-7.5-7.31-14.85-14.76-22.24-22.18c-13.37-13.41-26.72-26.84-40.1-40.25c-16.89-16.94-33.8-33.85-50.7-50.78
		c-2.11-2.12-4-4.53-6.35-6.33c-3.7-2.83-3.13-5.31-0.2-8.21c9.46-9.39,18.85-18.84,28.28-28.27c35.33-35.35,70.67-70.7,106-106.05
		c6.13-6.13,12.23-12.28,18.4-18.36c4.23-4.16,6.01-4.31,10.05-0.35c7.73,7.57,15.31,15.3,22.91,23
		C693.92,392.6,694.47,393.62,695.33,394.81z"/>
	<path d="M922.33,747.1c-9.28-9.4-18.08-18.43-27.03-27.3c-2.91-2.88-2.74-4.89,0.19-7.8c38.93-38.77,77.75-77.65,116.6-116.51
		c31.43-31.44,62.87-62.86,94.25-94.35c2.57-2.58,4.35-3.15,7.23-0.13c7.91,8.28,16.15,16.24,24.31,24.27
		c3.35,3.29,3.59,5.92-0.1,9.55c-35.72,35.15-71.25,70.5-106.88,105.75c-34.69,34.31-69.44,68.57-104.17,102.84
		C925.56,744.57,924.21,745.53,922.33,747.1z"/>
	<path d="M977.4,544.06c-7.22-6.85-13.71-13.01-20.7-19.64c-0.99,0.81-2.29,1.72-3.39,2.81c-10.76,10.68-21.41,21.48-32.27,32.06
		c-2.69,2.62-2.76,4.36-0.01,6.91c4.52,4.18,8.66,8.75,13.12,13c2.67,2.54,2.55,4.71,0.04,7.2c-8.38,8.34-16.83,16.61-24.99,25.16
		c-2.82,2.96-5.05,2.62-7.53,0.14c-9.28-9.27-18.5-18.59-27.75-27.89c-5.38-5.41-10.7-10.9-16.19-16.2
		c-2.68-2.58-2.41-4.27,0.26-6.91c30.94-30.54,61.68-61.28,92.61-91.83c7.82-7.72,7.12-9.27,15.37-0.76
		c11.66,12.02,23.74,23.63,35.38,35.67c7.9,8.18,7.69,8.36-0.35,16.44C993.06,528.22,985.14,536.24,977.4,544.06z"/>
	<path d="M1176.62,751.26c-0.73,1.28-1.12,2.44-1.89,3.23c-9.59,9.89-19.25,19.71-28.87,29.58c-1.87,1.92-3.52,2.31-6.08,0.77
		c-11.71-7.09-20.01-17.87-29.83-27c-2.54-2.36-2.3-3.95-0.13-6.12c10.56-10.58,21.1-21.17,31.58-31.83
		c2.36-2.41,4.22-1.21,5.96,0.51c9.06,8.99,18.09,18.02,27.05,27.11C1175.38,748.51,1175.89,749.98,1176.62,751.26z"/>
	<path d="M759.66,332.52c-0.91,1.35-1.56,2.71-2.56,3.72c-10.45,10.5-21,20.9-31.42,31.42c-2.93,2.96-5.31,2.6-7.99-0.28
		c-7.93-8.5-15.88-17-24-25.32c-2.69-2.76-2.74-4.56,0.13-7.35c10.61-10.32,21.04-20.84,31.34-31.47c2.33-2.4,4.39-2.37,6.41-0.4
		c8.81,8.58,17.52,17.28,26.18,26.01C758.61,329.74,758.95,331.13,759.66,332.52z"/>
</g>
</svg>
